<svg id="Layer_1" data-name="Layer 1" xmlns="http://www.w3.org/2000/svg" viewBox="0 0 1920 1186.63"><title>bg-golden-ratio</title><path d="M733.37,1189.13A735.26,735.26,0,0,1-2.5,453.26,455.37,455.37,0,0,1,453.25-2.49,282.62,282.62,0,0,1,735.87,280.13c0,96.84-78.78,175.62-175.62,175.62a109.62,109.62,0,0,1-109.5-109.5,68.54,68.54,0,0,1,68.63-68.44,43.52,43.52,0,0,1,43.37,43.56h-5a38,38,0,0,0-38.37-38.56,63.62,63.62,0,0,0-63.63,63.53A104.57,104.57,0,0,0,560.24,450.8c94.08,0,170.62-76.56,170.62-170.65,0-153.08-124.54-277.63-277.62-277.63C204.7,2.52,2.5,204.72,2.5,453.26c0,403,327.87,731.06,730.87,731.06C1386.3,1184.32,1917.5,653.38,1917.5.38h5c0,160-31.44,316.07-93.45,462.68a1188.39,1188.39,0,0,1-109.64,201.9,1197.3,1197.3,0,0,1-145.2,175.94,1197.51,1197.51,0,0,1-176,145.18,1189.21,1189.21,0,0,1-202,109.63C1049.63,1157.7,893.9,1189.13,733.37,1189.13Z"/></svg>