<svg xmlns="http://www.w3.org/2000/svg" width="236" height="100" viewBox="0 0 236 100"><title>formula-width</title><path d="M48,58.36l4-21.31h6.15L51.53,67H45.32L40.45,47,35.57,67H29.36L22.72,37.05h6.15l4.05,21.27,4.94-21.27h5.22Z"/><path d="M90.51,51.66H72.12V46.8H90.51Zm0,8.91H72.12V55.71H90.51Z"/><path d="M106.59,67V37.05h10.49q5.45,0,8.27,2.09a7.14,7.14,0,0,1,2.82,6.12A6.77,6.77,0,0,1,127,49.14a6.53,6.53,0,0,1-3.15,2.46,6.32,6.32,0,0,1,3.63,2.32,6.87,6.87,0,0,1,1.33,4.28,7.9,7.9,0,0,1-2.76,6.54Q123.33,67,118.23,67Zm6.17-17.4h4.57q4.67-.08,4.67-3.72a3.44,3.44,0,0,0-1.18-2.93,6.22,6.22,0,0,0-3.73-.9h-4.32Zm0,4.36V62H118a5.1,5.1,0,0,0,3.4-1,3.56,3.56,0,0,0,1.22-2.87q0-4.11-4.26-4.17Z"/><path d="M144.06,51.25a4.53,4.53,0,0,1,1.36-3.43,5.47,5.47,0,0,1,7,0,4.57,4.57,0,0,1,1.37,3.35V52a4.49,4.49,0,0,1-1.35,3.4A4.9,4.9,0,0,1,149,56.72a5,5,0,0,1-3.53-1.27A4.52,4.52,0,0,1,144.06,52Z"/><path d="M177.65,37.05l7.69,21.72L193,37.05h8.1V67H194.9V58.81l.62-14.13L187.44,67H183.2l-8.06-22.29.62,14.11V67h-6.17V37.05Z"/><path d="M219.25,47.06a6.37,6.37,0,0,1-1,3.22,5.94,5.94,0,0,1-2.52,2.16,8.6,8.6,0,0,1-3.71.77A6.85,6.85,0,0,1,206.61,51a9.25,9.25,0,0,1-2-6.33v-.86a10.57,10.57,0,0,1,.89-4.49,6.77,6.77,0,0,1,2.57-3,7.17,7.17,0,0,1,3.88-1,7.53,7.53,0,0,1,5.11,1.67,6.61,6.61,0,0,1,2.19,4.61h-4.2a3.13,3.13,0,0,0-.8-2.29,3.31,3.31,0,0,0-2.3-.7,2.51,2.51,0,0,0-2.3,1.17,7.56,7.56,0,0,0-.77,3.75v1.24a8.35,8.35,0,0,0,.7,4,2.57,2.57,0,0,0,2.42,1.2,3.23,3.23,0,0,0,2.22-.68,2.9,2.9,0,0,0,.82-2.17Z"/></svg>